<?xml version="1.0" encoding="utf-8"?>
<!-- Generator: Adobe Illustrator 22.0.1, SVG Export Plug-In . SVG Version: 6.00 Build 0)  -->
<svg version="1.1" id="Layer_1" xmlns="http://www.w3.org/2000/svg" xmlns:xlink="http://www.w3.org/1999/xlink" x="0px" y="0px"
	 viewBox="0 0 108.3 125" style="enable-background:new 0 0 108.3 125;" xml:space="preserve">
<style type="text/css">
	.st0{fill:#F8F8F8;}
	.st1{fill:#F26522;}
	.st2{opacity:0.15;}
	.st3{fill:#231F20;}
</style>
<title>kitty</title>
<g>
	<polygon class="st0" points="0,31.2 54.2,0 108.3,31.2 108.3,93 54.2,125 0,93 	"/>
</g>
<g id="Mask-2">
	<path id="path-2-2" class="st1" d="M7,36L53.8,9l46.8,27v53.3L53.8,117L7,89.3V36z"/>
</g>
<g>
	<g id="Path-295" class="st2">
		<path d="M101.8,36L54,65.3l47.3,24.2L101.8,36z"/>
		<path d="M6,36l47.8,29.3L6.6,89.6L6,36z"/>
	</g>
</g>
<g id="layer1">
	<path id="path5432-0-4-8-3-6-0-8" class="st3" d="M33.6,32.3c-1.1,0.1-2,1.1-1.9,2.2v18.6c-2.2,4.7-2,10.2,0.5,14.8
		c-0.8,0.2-1.6,0.6-2.3,0.9c-1.2,0.5-2.3,1.1-3.4,1.8l0.4,0.6c1.1-0.7,2.2-1.3,3.3-1.8c0.8-0.4,1.6-0.7,2.4-0.9
		c0.3,0.5,0.6,1,0.9,1.4c-1,0.2-1.9,0.6-2.9,1c-1.2,0.5-2.3,1.1-3.4,1.8l0.4,0.6c1.1-0.6,2.2-1.2,3.3-1.7c0.9-0.4,1.8-0.8,2.8-1H34
		c0.4,0.5,0.8,1,1.2,1.4c-0.3,0-0.6,0.1-0.9,0.2c-1,0.3-2,0.6-2.9,1.1c-1.2,0.5-2.3,1.1-3.4,1.7l0.4,0.6c1.1-0.6,2.2-1.2,3.3-1.7
		c0.9-0.4,1.8-0.7,2.8-1c0.5-0.1,0.9-0.2,1.4-0.2c0.4,0.3,0.8,0.7,1.2,1c-1,2-1.5,4.2-1.6,6.5c0,5,2.6,9.7,6.8,12.4
		c-1.2,1-1.8,2.5-1.5,4.1c0.7,2.3,3.9,3.6,7.1,2.8l0,0c1.2-0.3,2.3-0.9,3.3-1.7c0.9,0.8,2.1,1.4,3.3,1.7c3.2,0.8,6.4-0.4,7.1-2.8
		l0,0c0.3-1.5-0.2-3.1-1.5-4.1c1.6-1,3-2.4,4.1-3.9c1.4,0.7,2.6,1.6,3.8,2.6c3.2,2.5,7.4,3.2,10.6,1.3s4.9-5.9,4.8-10.8
		c0-1.7-1.3-3-3-3h-0.1c-1.7,0-3,1.4-2.9,3.1c0,3.6-1.1,5.2-2,5.7s-2,0.6-3.7-0.8c-1.5-1.4-3.3-2.5-5.1-3.4c0.2-1,0.3-2,0.3-3
		c0-2.2-0.5-4.5-1.6-6.4c0.4-0.3,0.8-0.7,1.2-1c0.5,0,1,0.1,1.5,0.2c1,0.3,1.9,0.6,2.8,1c1.1,0.5,2.2,1.1,3.3,1.8l0.4-0.6
		c-1.1-0.7-2.2-1.3-3.4-1.8c-0.9-0.4-1.9-0.8-2.9-1.1c-0.3-0.1-0.6-0.1-0.9-0.2c0.4-0.4,0.8-0.9,1.2-1.4h0.2c1,0.3,1.9,0.6,2.8,1
		c1.1,0.5,2.2,1.1,3.3,1.8l0.4-0.6c-1.1-0.7-2.2-1.3-3.4-1.8c-0.9-0.4-1.9-0.8-2.8-1c0.3-0.5,0.6-0.9,0.9-1.4
		c0.8,0.2,1.6,0.5,2.4,0.9c1.1,0.5,2.2,1.1,3.3,1.8l0.4-0.6c-1.1-0.7-2.2-1.3-3.4-1.8c-0.8-0.3-1.5-0.7-2.3-0.9
		c2.5-4.6,2.6-10.1,0.5-14.8V34.5c0.1-1.1-0.7-2.1-1.8-2.3l0,0c-0.3,0-0.6,0.1-0.9,0.3l-12.5,9.1c-1.4-0.3-2.9-0.4-4.3-0.4
		c-1.4,0-2.9,0.1-4.3,0.4l-12.5-9.1C34.2,32.4,33.9,32.3,33.6,32.3z M34,36.8l4.3,8.5c-1.6,1.1-3,2.5-4.3,4C34,49.3,34,36.8,34,36.8
		z M68.5,36.8v12.6c-1.2-1.6-2.6-2.9-4.3-4L68.5,36.8z M40.5,57.8L40.5,57.8c0.8,0,1.5,0.1,2.2,0.2c2.9,0.5,5.1,2.8,5.5,5.7
		c0,0.2,0,0.3-0.1,0.5c-1.9,2.2-5,3.2-7.8,2.3c-3-0.8-5.3-3-5.5-5.7c0-0.2,0-0.3,0.1-0.5C36.3,58.7,38.3,57.7,40.5,57.8L40.5,57.8z
		 M62.1,57.8L62.1,57.8c2.2,0,4.2,0.9,5.6,2.6c0.1,0.1,0.1,0.3,0.1,0.5c-0.3,2.7-2.6,4.9-5.5,5.7c-2.8,0.8-5.9-0.1-7.8-2.3
		c-0.1-0.1-0.1-0.3-0.1-0.5c0.5-2.9,2.7-5.1,5.5-5.7C60.5,57.8,61.3,57.7,62.1,57.8L62.1,57.8z M43.4,59.2c-1.1,0.1-2,1.1-1.9,2.2
		l0,0c-0.1,1.1,0.7,2.1,1.9,2.2l0,0c1.1-0.1,2-1.1,1.9-2.2l0,0C45.3,60.4,44.5,59.4,43.4,59.2z M59.1,59.2c-1.1,0.1-2,1.1-1.9,2.2
		l0,0c-0.1,1.1,0.7,2.1,1.9,2.2l0,0c1.2-0.2,2.1-1.4,1.8-2.7C60.8,60.1,60,59.4,59.1,59.2z M51.3,68.2c1.2,0,2.2,0.7,2.2,1.5
		s-1,1.5-2.2,1.5S49,70.6,49,69.8l0,0C49,68.9,50,68.2,51.3,68.2z"/>
</g>
</svg>
