<svg id="Layer_1" data-name="Layer 1" xmlns="http://www.w3.org/2000/svg" viewBox="0 0 108.29 125"><defs><style>.cls-1{fill:#f8f8f8;}.cls-2{fill:#6abd45;}.cls-3{opacity:0.15;}.cls-4{fill:#231f20;}</style></defs><title>alice</title><polygon class="cls-1" points="0 31.24 54.15 0 108.29 31.24 108.29 92.97 54.15 125 0 92.97 0 31.24"/><g id="Mask-2"><path id="path-2-2" class="cls-2" d="M7,36,53.78,9l46.78,27V89.32L53.78,117,7,89.32Z"/></g><g id="Path-295" class="cls-3"><path d="M101.85,36,54,65.35l47.28,24.24Z"/><path d="M6,36,53.85,65.35,6.57,89.59Z"/></g><path class="cls-4" d="M58.08,93.35l1-7.74A47.2,47.2,0,0,0,68.42,83C61.32,63.76,61,49.4,61,49.4a10.67,10.67,0,0,1-2.59.72,6.78,6.78,0,0,1,1.49-3.22c1.77-1.89,7.69-1.56,4.38-9.72L65,37.1a1.31,1.31,0,0,0-.21-2.51h0l-.79.09c0-2.29-.24-6.35-1.9-8.59,4.69-1.39,3.8,3.2,3.8,3.2l1,.5c1.53-8.24-12.42-9.69-18.45-8.86a6.68,6.68,0,0,0-6.08,6.41c-3.36.83-3.19,16.48-3.19,16.48a24.77,24.77,0,0,0,7.4,1A7.69,7.69,0,0,0,48,44.61a6.79,6.79,0,0,0,4,1.17c.55,0,1.11,1.31,1.11,3.68a8.72,8.72,0,0,1-1.57-.91s-8.39,10.38-7.37,22.19c0,0-.09,1,1.53,1.4V74a3.63,3.63,0,0,1-.66.87.92.92,0,0,1-.36-.53c0-1.42-.61-2.21-1.8-.9a.57.57,0,0,0-.2.23c-.87,1.08-.13,3,1.58,4.16a4.82,4.82,0,0,0,2.54.81c-.62,2.29-1.23,4.5-1.53,5.31a14.18,14.18,0,0,0,5.86,2l-.2,13s-.74,2.22,1.51,1.81a10.24,10.24,0,0,0,9.69,2.16v-1.55c-2.06-1.81-7-2-8.36-3.66L55.24,86h.13l-.14,8.55s-.74,2.23,1.51,1.81a10.26,10.26,0,0,0,9.7,2.16V97c-2.06-1.8-7-2-8.36-3.65Z"/></svg>