<?xml version="1.0" encoding="utf-8"?>
<!-- Generator: Adobe Illustrator 22.0.1, SVG Export Plug-In . SVG Version: 6.00 Build 0)  -->
<svg version="1.1" id="Layer_1" xmlns="http://www.w3.org/2000/svg" xmlns:xlink="http://www.w3.org/1999/xlink" x="0px" y="0px"
	 viewBox="0 0 108.3 125" style="enable-background:new 0 0 108.3 125;" xml:space="preserve">
<style type="text/css">
	.st0{fill:#F8F8F8;}
	.st1{fill:#76B5E7;}
	.st2{opacity:0.15;}
</style>
<title>kitty</title>
<g>
	<polygon class="st0" points="0,31.2 54.2,0 108.3,31.2 108.3,93 54.2,125 0,93 	"/>
</g>
<g id="Mask-2">
	<path id="path-2-2" class="st1" d="M7,36L53.8,9l46.8,27v53.3L53.8,117L7,89.3V36z"/>
</g>
<g>
	<g id="Path-295" class="st2">
		<path d="M101.8,36L54,65.3l47.3,24.2L101.8,36z"/>
		<path d="M6,36l47.8,29.3L6.6,89.6L6,36z"/>
	</g>
</g>
<path id="imagebot_1" d="M58.5,23.8c-1.3,0-2.3,0.6-2.3,1.8c0,1.5-0.4,7.8,0.2,9.9c0.6,2.1,2.8,5.1,4.5,7.1c1.3,1.6,0.6,5.4,0.6,7.3
	c0,1.9-0.4,3.4-1.1,3.4c-0.7,0-1.9,0.7-2.6,1.5c-0.7,0.7-1.5,1.7-2.4,0.9c-0.9-0.7-2.6-1.5-5.6-2.1c-3-0.6-8,0-11.2,1.1
	c-3.2,1.1-9.9,7.3-11.8,10.1c-1.9,2.8-2.1,11.4-1.9,12.7c0.2,1.3-0.4,2.2-1.3,1.1c-0.9-1.1-1.7-0.6-1.7-0.6s-0.9,1.9-0.9,2.8
	c0,0.9,0.4,1.9,0.4,1.9s-1.5,1.1-1.5,1.9c0,0.7,1.5,2.1,2.4,3.2c0.9,1.1,4.1,3.4,5.4,3.2c1.3-0.2,3.7,0,4.7,0.6
	c0.9,0.6,3.2,1.3,6,1.5c2.8,0.2,10.6,0.7,12.7,0.7c2.1,0,2.6-0.4,3.6-1.3c0.9-0.9-0.8-2.1-1.3-3.4c-0.6-1.3,1.9-0.9,2.6-1.1
	s2.8-1.5,4.1-1.5s1.1,1.3,2.8,2.1c1.7,0.7,4.1,3.2,6,3.5c1.9,0.4,6.2,0,7.7-0.6c1.5-0.6,1.3-1.9,0-2.8c-1.3-0.9-4.5-2.6-5-3.6
	c-0.6-0.9-0.7-2.1,0.2-3c0.9-0.9,1.9-0.6,3.4-1.3c1.5-0.7,2.1-3,2.1-4.3c0-1.3,0.2-2.7,0.7-3.5c0.5-0.7,0.7-2.9,0.7-4.4
	c0-1.6-0.7-2-1.2-2.9c-0.6-0.9,0.6-2.2,1.3-2.2c0.7,0,4.1-0.6,5.4-1.1c1.3-0.6,2.6-3,3.6-4.1c0.9-1.1,0.2-3.5-1.1-4.3
	c-1.3-0.7-1.3-2.8-2.4-4.1c-1.1-1.3-2.4-4.1-3.5-5c-1.1-0.9-3.7-1.7-4.7-1.7s-1.5,0-1.5-0.7s-0.2-1.7-0.2-3.4
	c0-1.7-2.1-8.9-4.9-13.3c-0.6-0.9-1.5-0.7-2.6-0.4c-0.7,0.2-1.1,0.6-1.1,3c0,2.4-1.5,0-2.2-1.3s-2.1-2.8-3.7-3.2
	C59.1,23.9,58.8,23.9,58.5,23.8L58.5,23.8z"/>
</svg>
